<svg width="18" height="19" viewBox="0 0 18 19" fill="none" xmlns="http://www.w3.org/2000/svg">
    <g clip-path="url(#se2pwefd6a)">
        <path d="M13.5 6.5h-.75V5c0-2.07-1.68-3.75-3.75-3.75-2.07 0-3.75 1.68-3.75 3.75v1.5H4.5C3.675 6.5 3 7.175 3 8v7.5c0 .825.675 1.5 1.5 1.5h9c.825 0 1.5-.675 1.5-1.5V8c0-.825-.675-1.5-1.5-1.5zM6.75 5A2.247 2.247 0 0 1 9 2.75 2.247 2.247 0 0 1 11.25 5v1.5h-4.5V5zm6.75 10.5h-9V8h9v7.5zM9 13.25c.825 0 1.5-.675 1.5-1.5s-.675-1.5-1.5-1.5-1.5.675-1.5 1.5.675 1.5 1.5 1.5z" fill="#8A8FA4"/>
    </g>
    <defs>
        <clipPath id="se2pwefd6a">
            <path fill="#fff" transform="translate(0 .5)" d="M0 0h18v18H0z"/>
        </clipPath>
    </defs>
</svg>
